<svg xmlns="http://www.w3.org/2000/svg" width="462" height="462" fill="none" viewBox="0 0 462 462">
  <g opacity=".4">
    <mask id="a" width="462" height="462" x="0" y="0" maskUnits="userSpaceOnUse" style="mask-type:luminance">
      <path fill="#fff" d="M231 0C103.411 0 0 103.411 0 231c0 127.588 103.411 231 231 231 127.588 0 231-103.412 231-231C462 103.411 358.588 0 231 0Zm0 313.202c-45.41 0-82.203-36.792-82.203-82.202S185.59 148.797 231 148.797c45.41 0 82.202 36.793 82.202 82.203 0 45.41-36.792 82.202-82.202 82.202Z"/>
    </mask>
    <g mask="url(#a)">
      <path fill="#00C1C6" d="M231.071 503.576c100.119 0 181.281-81.163 181.281-181.281 0-100.119-81.162-181.281-181.281-181.281S49.79 222.176 49.79 322.295c0 100.118 81.162 181.281 181.281 181.281Z" opacity=".25"/>
      <path fill="#00C1C6" d="M231.084 320.672c100.079 0 181.209-81.13 181.209-181.209 0-100.079-81.13-181.21-181.209-181.21-100.079 0-181.209 81.131-181.209 181.21 0 100.079 81.13 181.209 181.209 181.209Z" opacity=".25"/>
      <path fill="#00C1C6" d="M139.705 412.181c100.119 0 181.281-81.162 181.281-181.281S239.824 49.62 139.705 49.62-41.576 130.78-41.576 230.9s81.162 181.281 181.281 181.281Z" opacity=".25"/>
      <path fill="#00C1C6" d="M322.52 412.108c100.079 0 181.209-81.13 181.209-181.209 0-100.079-81.13-181.21-181.209-181.21-100.079 0-181.209 81.131-181.209 181.21 0 100.079 81.13 181.209 181.209 181.209Z" opacity=".25" style="mix-blend-mode:multiply"/>
      <path fill="#00C1C6" d="M166.471 476.822c100.119 0 181.281-81.162 181.281-181.281S266.59 114.26 166.471 114.26c-100.118 0-181.28 81.162-181.28 181.281s81.162 181.281 181.28 181.281Z" opacity=".35" style="mix-blend-mode:multiply"/>
      <path fill="#00C1C6" d="M295.724 347.452c100.079 0 181.209-81.13 181.209-181.21 0-100.079-81.13-181.209-181.209-181.209-100.079 0-181.209 81.13-181.209 181.209 0 100.08 81.13 181.21 181.209 181.21Z" opacity=".5" style="mix-blend-mode:multiply"/>
      <path fill="#00C1C6" d="M166.471 347.582c100.119 0 181.281-81.163 181.281-181.281 0-100.12-81.162-181.281-181.281-181.281-100.118 0-181.28 81.162-181.28 181.281 0 100.118 81.162 181.281 181.28 181.281Z" opacity=".35" style="mix-blend-mode:multiply"/>
      <path fill="#00C1C6" d="M295.724 476.792c100.079 0 181.209-81.131 181.209-181.21 0-100.079-81.13-181.209-181.209-181.209-100.079 0-181.209 81.13-181.209 181.209 0 100.079 81.13 181.21 181.209 181.21Z" opacity=".35"/>
    </g>
  </g>
</svg>
